<svg width="130" height="130" viewBox="0 0 130 130" fill="none" xmlns="http://www.w3.org/2000/svg">
<path fill-rule="evenodd" clip-rule="evenodd" d="M60.3435 54.1264C60.4521 54.6896 60.6691 55.2517 60.8861 55.8126C61.8626 58.8411 62.9479 62.373 64.9011 64.9804C67.5052 68.3995 70.4347 69.7211 73.3644 69.6918C77.4877 69.6473 81.719 66.6058 84.3232 62.4381C86.9274 58.3083 88.0129 53.1369 86.3853 48.9713C85.3002 46.1164 82.913 43.6804 78.7898 42.3523C74.124 40.8202 69.6752 42.0734 65.7689 44.7742C64.2498 45.7876 62.9479 47.0073 61.6458 48.3506C61.3203 46.583 60.9944 44.7981 60.6689 42.9882C59.8008 37.0626 59.5836 30.8343 59.9091 24.861C60.2346 16.9595 61.8629 9.40082 64.9011 2.09829C65.1181 1.42337 64.7923 0.650806 64.1413 0.373028C63.4903 0.0963346 62.7311 0.417543 62.4056 1.09246C59.2589 8.68254 57.5219 16.5384 57.1964 24.7503C56.9794 30.8972 57.0888 37.3056 58.0653 43.4037C58.4993 45.9298 58.9332 48.4092 59.4757 50.8604C56.98 54.0765 55.0267 57.6496 53.8331 60.6878C46.2376 81.0123 56.1113 108.381 65.877 126.798C66.2025 127.443 66.9627 127.688 67.6137 127.347C68.2648 127.005 68.4818 126.206 68.1563 125.561C58.7161 107.735 48.9501 81.2923 56.3286 61.621C57.1966 59.3076 58.6074 56.6525 60.3435 54.1264ZM62.4056 51.4962C62.6226 52.6572 62.9475 53.8107 63.3815 54.9608C64.3581 57.7365 65.2259 60.9982 66.9621 63.3864C68.9152 65.9678 71.0862 67.0713 73.2563 67.0496C76.7286 67.0138 79.9833 64.3988 82.045 61.0275C84.2151 57.6193 85.3004 53.3723 83.8898 49.9337C83.0218 47.7202 81.1767 45.894 78.03 44.8643C74.1237 43.6023 70.4351 44.7221 67.2884 46.9476C65.4438 48.1856 63.8162 49.7634 62.4056 51.4962Z" fill="#707070"/>
<path fill-rule="evenodd" clip-rule="evenodd" d="M67.1773 126.999C66.6348 126.616 66.0923 126.043 65.5497 125.469C64.4647 124.366 63.4879 123.196 62.6198 122.58C57.4115 118.784 51.1183 114.297 44.9334 112.307C44.2823 112.083 43.5228 112.464 43.3058 113.158C43.0887 113.852 43.4141 114.597 44.1736 114.822C50.033 116.731 56.0015 121.077 61.1014 124.72C61.9694 125.386 63.1624 126.796 64.2474 127.927C65.224 128.886 66.2008 129.651 67.1773 129.929C67.7199 130.124 68.6964 129.907 69.3475 128.686C70.2155 126.954 70.9757 122.145 71.0842 121.679C72.1693 116.964 73.2542 112.814 77.3774 109.837C77.92 109.408 78.0283 108.58 77.7028 107.991C77.2687 107.402 76.4005 107.272 75.8579 107.701C71.1921 111.095 69.6732 115.743 68.4796 121.118C68.4796 121.461 68.0456 124.335 67.3946 126.333C67.2861 126.549 67.2858 126.787 67.1773 126.999Z" fill="#707070"/>
</svg>
