<svg width="56" height="56" viewBox="0 0 56 56" fill="none" xmlns="http://www.w3.org/2000/svg">
<rect x="55" y="55" width="54" height="54" rx="27" transform="rotate(-180 55 55)" stroke="#DF4789" stroke-width="2"/>
<path d="M29.0625 32.9062C29.375 32.5938 29.3438 32.125 29.0625 31.8125L25.2812 28.25H34.25C34.6875 28.25 35 27.9062 35 27.5V26.5C35 26.0625 34.6875 25.75 34.25 25.75H25.2812L29.0625 22.1562C29.3438 21.8438 29.3438 21.375 29.0625 21.0625L28.375 20.375C28.0625 20.0938 27.5938 20.0938 27.3125 20.375L21.2188 26.4688C20.9375 26.75 20.9375 27.2188 21.2188 27.5312L27.3125 33.5938C27.5938 33.875 28.0625 33.875 28.375 33.5938L29.0625 32.9062Z" fill="#DF4789"/>
</svg>
