<svg width="56" height="56" viewBox="0 0 56 56" fill="none" xmlns="http://www.w3.org/2000/svg">
<g opacity="0.4">
<rect x="55" y="55" width="54" height="54" rx="27" transform="rotate(-180 55 55)" stroke="white" stroke-width="2"/>
<path d="M26.9688 21.0625C26.6562 21.375 26.6875 21.8438 26.9688 22.1562L30.75 25.75H21.75C21.3438 25.75 21 26.0625 21 26.5V27.5C21 27.9062 21.3438 28.25 21.75 28.25H30.75L26.9688 31.8125C26.6875 32.125 26.6562 32.5938 26.9688 32.9062L27.6562 33.5938C27.9375 33.875 28.4375 33.875 28.7188 33.5938L34.7812 27.5C35.0938 27.2188 35.0938 26.75 34.7812 26.4688L28.7188 20.375C28.4375 20.0938 27.9688 20.0938 27.6562 20.375L26.9688 21.0625Z" fill="white"/>
</g>
</svg>
